<svg width="158" height="158" viewBox="0 0 158 158" fill="#F6951B" xmlns="http://www.w3.org/2000/svg">
<path d="M105.566 137.689L74.3164 116.001C72.3527 114.636 72.4915 112.64 74.6252 111.562L106.859 95.2732C108.992 94.1954 110.671 95.2669 110.589 97.656L109.284 135.824C109.202 138.214 107.529 139.054 105.566 137.689ZM115.242 83.8816L137.355 52.7469C138.74 50.7968 137.918 49.1165 135.53 49.0083L97.5296 47.2938C95.1414 47.1856 94.0413 48.8578 95.0832 51.0091L110.831 83.5144C111.873 85.666 113.857 85.8314 115.242 83.8816ZM115.332 135.491L141.245 106.287C142.832 104.499 142.278 102.411 140.014 101.645L118.132 94.2527C115.868 93.4868 113.949 94.815 113.867 97.2041L112.596 134.399C112.514 136.788 113.745 137.28 115.332 135.491ZM62.7622 145.128L101.619 142.247C104.003 142.069 104.347 140.811 102.383 139.446L71.991 118.356C70.0273 116.992 67.7951 117.73 67.0303 119.994L59.8194 141.335C59.0546 143.599 60.3785 145.307 62.7622 145.128ZM112.348 18.3975L137.756 40.9392C139.544 42.5241 140.861 41.8728 140.684 39.49L139.992 30.1754C139.815 27.7927 137.817 25.2169 135.553 24.453L113.215 16.9038C110.95 16.1402 110.56 16.8126 112.348 18.3975ZM101.367 18.3637L94.158 39.7022C93.3932 41.9662 94.7203 43.9055 97.1083 44.0138L134.064 45.6793C136.452 45.7875 136.942 44.5758 135.155 42.9911L106.008 17.1309C104.221 15.5459 102.132 16.0998 101.367 18.3637ZM107.545 11.5508L125.901 17.7525C128.166 18.5164 128.391 18.0582 126.401 16.732L109.474 5.45272C107.793 4.33249 105.888 4.98166 105.242 6.8956C104.595 8.80929 105.632 10.9035 107.545 11.5508ZM68.6916 104.895L75.5926 84.4672C76.3575 82.2032 75.1311 79.7251 72.8672 78.959L52.9174 72.2182C50.6535 71.4524 49.654 72.5852 50.6958 74.7368L65.406 105.101C66.4478 107.253 67.9268 107.159 68.6916 104.895ZM86.3202 52.7171C87.085 50.4532 85.9659 49.4835 83.8326 50.5614L53.7226 65.7786C51.589 66.8565 51.6963 68.3652 53.9601 69.1311L73.9112 75.8698C76.1751 76.6357 78.6532 75.4094 79.4181 73.1455L86.3202 52.7171ZM74.2664 108.091L104.376 92.8735C106.51 91.7956 106.403 90.2871 104.138 89.5232L84.1889 82.7825C81.924 82.0186 79.4457 83.245 78.6808 85.509L71.7787 105.935C71.014 108.199 72.1331 109.169 74.2664 108.091ZM44.234 61.4482L45.504 24.2367C45.5857 21.8476 44.3548 21.3553 42.769 23.144L16.8517 52.367C15.2657 54.1537 15.8204 56.2436 18.0854 57.0073L39.9682 64.4016C42.2332 65.1655 44.1524 63.8373 44.234 61.4482ZM48.8128 22.8279L47.5111 60.9963C47.4294 63.3854 49.1076 64.4568 51.2412 63.3789L83.4749 47.0881C85.6084 46.0102 85.7474 44.0138 83.7836 42.6493L52.5311 20.9629C50.5674 19.5986 48.8944 20.4388 48.8128 22.8279ZM144.185 42.5963C144.362 44.9791 145.969 48.2274 147.757 49.8146L151.841 53.4406C153.629 55.0277 154.223 54.5736 153.162 52.4329L145.388 36.7403C144.327 34.5995 143.605 34.7968 143.782 37.1795L144.185 42.5963ZM22.5676 109.648L60.5705 111.358C62.9584 111.467 64.0588 109.795 63.0169 107.643L47.2682 75.1379C46.2264 72.9863 44.2414 72.8207 42.857 74.7707L20.743 105.91C19.3586 107.86 20.1796 109.54 22.5676 109.648ZM95.3356 13.524L56.4787 16.4052C54.095 16.5836 53.7513 17.8418 55.715 19.206L86.109 40.2963C88.0728 41.6607 90.305 40.9222 91.0697 38.6583L98.2785 17.3175C99.0433 15.0538 97.7195 13.3456 95.3356 13.524ZM107.404 83.9177L92.694 53.5531C91.6523 51.4015 90.1733 51.495 89.4085 53.7589L82.5053 74.1893C81.7405 76.4532 82.9667 78.9314 85.2306 79.6975L105.182 86.4361C107.447 87.2022 108.446 86.0691 107.404 83.9177ZM79.1307 1.94967L97.4987 8.15597C99.4126 8.80301 101.508 7.76553 102.155 5.85159C102.801 3.93771 101.681 2.26583 99.6651 2.13632L79.3503 0.837917C76.9643 0.685207 76.8656 1.18576 79.1307 1.94967ZM139.125 55.8871L117.574 86.2303C116.189 88.1803 116.91 90.3997 119.175 91.1656L141.054 98.5579C143.319 99.3216 145.027 97.9976 144.85 95.615L141.963 56.6764C141.785 54.2936 140.509 53.937 139.125 55.8871ZM50.5527 147.104L32.1802 140.898C29.9163 140.132 29.6914 140.59 31.6807 141.914L48.6239 153.202C50.3043 154.322 52.2098 153.673 52.8568 151.759C53.503 149.845 52.4663 147.751 50.5527 147.104ZM102.445 145.453L68.5727 147.967C66.189 148.143 66.0912 148.914 68.3562 149.679L90.6922 157.225C92.9561 157.99 96.1068 157.155 97.6929 155.366L103.894 148.383C105.48 146.594 104.828 145.277 102.445 145.453ZM78.9546 156.7L60.5981 150.499C58.6855 149.851 56.5901 150.889 55.944 152.803C55.2969 154.714 56.4161 156.387 58.4319 156.516L78.7339 157.814C81.1197 157.967 81.2183 157.466 78.9546 156.7ZM56.7311 140.291L63.9421 118.95C64.7068 116.686 63.3798 114.747 60.9917 114.639L24.0763 112.975C21.6881 112.867 21.1971 114.078 22.9834 115.666L52.092 141.521C53.8786 143.108 55.9663 142.555 56.7311 140.291ZM121.224 144.055L115.778 144.462C113.394 144.638 110.147 146.247 108.559 148.035L104.955 152.096C103.368 153.885 103.823 154.479 105.966 153.42L121.663 145.659C123.805 144.6 123.608 143.879 121.224 144.055ZM156.422 79.4237L150.221 97.7771C149.575 99.6908 150.612 101.785 152.525 102.432C154.437 103.079 156.108 101.959 156.238 99.9432L157.536 79.6445C157.688 77.2595 157.187 77.1598 156.422 79.4237ZM139.978 112.625L117.432 138.035C115.845 139.824 116.498 141.139 118.882 140.963L128.199 140.267C130.582 140.091 133.158 138.092 133.923 135.829L141.47 113.491C142.235 111.227 141.564 110.836 139.978 112.625ZM145.175 55.9294L147.689 89.8014C147.866 92.1841 148.636 92.2817 149.401 90.0177L156.946 67.6862C157.711 65.4223 156.875 62.2715 155.088 60.6843L148.103 54.4824C146.315 52.8952 144.997 53.5468 145.175 55.9294ZM151.482 105.519C149.568 104.872 147.473 105.91 146.826 107.824L140.626 126.175C139.861 128.439 140.319 128.663 141.645 126.675L152.925 109.752C154.045 108.07 153.396 106.166 151.482 105.519ZM36.8567 14.606L42.3053 14.203C44.6892 14.0268 47.9355 12.4185 49.5215 10.6298L53.1369 6.54971C54.7229 4.76114 54.2669 4.16476 52.1248 5.22348L36.4174 12.9997C34.2756 14.0585 34.4728 14.7822 36.8567 14.606ZM18.1214 46.025L40.6398 20.6317C42.2259 18.8432 41.5734 17.5257 39.1895 17.7016L29.9004 18.3891C27.5165 18.5653 24.9408 20.5618 24.1761 22.8257L16.6288 45.1594C15.864 47.4233 16.5356 47.8137 18.1214 46.025ZM1.6768 79.2306L7.87766 60.8775C8.52378 58.9635 7.48722 56.8695 5.57438 56.2223C3.66178 55.575 1.99076 56.6955 1.86124 58.7111L0.562844 79.01C0.411233 81.3948 0.911782 81.4945 1.6768 79.2306ZM6.61729 53.133C8.53117 53.7802 10.6252 52.7425 11.2714 50.831L17.4722 32.4798C18.2372 30.2159 17.7788 29.991 16.4539 31.979L5.17442 48.9022C4.05521 50.5826 4.70335 52.4859 6.61729 53.133ZM45.7499 140.255L20.3367 117.709C18.549 116.124 17.2293 116.775 17.4045 119.16L18.0897 128.47C18.2646 130.853 20.2602 133.429 22.5252 134.193L44.8832 141.749C47.1483 142.512 47.5376 141.84 45.7499 140.255ZM55.6502 13.2014L89.5252 10.6872C91.9091 10.511 92.0066 9.74069 89.7427 8.97482L67.3855 1.42129C65.1219 0.655422 61.9729 1.49343 60.388 3.28219L54.1978 10.2691C52.6128 12.0579 53.2663 13.3776 55.6502 13.2014ZM18.967 102.78L40.5262 72.424C41.9106 70.4742 41.1903 68.2548 38.9253 67.4887L17.0416 60.0966C14.7776 59.3307 13.0695 60.6546 13.2457 63.0373L16.1302 101.991C16.3064 104.374 17.5826 104.73 18.967 102.78ZM12.9146 102.697L10.4078 68.851C10.2317 66.4682 9.46153 66.3707 8.69651 68.6346L1.15055 90.9683C0.385598 93.2322 1.22269 96.3809 3.01127 97.968L9.98344 104.147C11.7722 105.734 13.0908 105.08 12.9146 102.697ZM13.9077 116.035C13.7315 113.652 12.1255 110.404 10.3377 108.819L6.24595 105.19C4.45847 103.605 3.8632 104.06 4.92301 106.202L12.6982 121.912C13.758 124.055 14.4826 123.858 14.3066 121.475L13.9077 116.035Z" fill="#F6951B"/>
</svg>
