<svg width="158" height="158" viewBox="0 0 158 158" fill="none" xmlns="http://www.w3.org/2000/svg">
<path d="M79.3089 0.27301C49.6827 0.27301 30.7386 16.1044 22.9998 24.0792C0.417185 47.2662 -5.06609 81.3152 7.1081 109.692H151.51C155.636 100.075 157.825 89.5502 157.825 78.7886C157.825 35.4234 122.674 0.27301 79.3089 0.27301ZM62.5999 78.7886C62.5999 69.5976 70.0404 62.0866 79.3089 62.0866C88.5374 62.0866 96.0109 69.5602 96.0109 78.7886C96.0109 87.9618 88.5865 95.4977 79.3089 95.4977C70.0455 95.4977 62.5999 87.9744 62.5999 78.7886ZM116.227 95.4977H105.308C108.517 90.5179 110.212 84.7718 110.212 78.7886C110.212 61.7206 96.377 47.8854 79.3089 47.8854C62.2392 47.8854 48.4056 61.719 48.4056 78.7886C48.4056 84.7601 50.0949 90.508 53.3094 95.4977H42.3842C40.0339 90.3176 38.7938 84.6202 38.7938 78.7886C38.7938 56.4133 56.9465 38.2805 79.3089 38.2805C101.683 38.2805 119.817 56.4141 119.817 78.7886C119.817 84.6265 118.575 90.3229 116.227 95.4977ZM141.423 95.4977H131.413C142.763 60.4153 116.44 24.0792 79.3089 24.0792C49.0989 24.0792 24.5994 48.5787 24.5994 78.7886C24.5994 84.4263 25.4696 90.1339 27.205 95.4977H17.195C15.7148 90.0423 14.9945 84.2992 14.9945 78.7886C14.9945 43.2803 43.8006 14.4742 79.3089 14.4742C114.831 14.4742 143.623 43.2661 143.623 78.7886C143.623 84.2803 142.908 90.0236 141.423 95.4977ZM146.578 119.304C143.47 124.452 139.795 129.209 135.618 133.498H22.9998C18.8226 129.209 15.1483 124.452 12.0396 119.304H146.578ZM124.344 143.103C111.588 152.058 96.0599 157.304 79.3089 157.304C62.551 157.304 47.0156 152.051 34.2672 143.103H124.344Z" fill="white"/>
</svg>
