<svg width="248" height="166" viewBox="0 0 248 166" fill="none" xmlns="http://www.w3.org/2000/svg">
<path d="M214.549 0H0C15.5721 2.53435 26.5302 12.6718 26.5302 24.0763V166C47.8697 150.372 59.4046 129.674 59.4046 107.71V28.3002C59.4046 26.1883 61.7116 24.0763 65.172 24.0763C68.0557 24.0763 70.9395 25.7659 70.9395 28.3002V133.898C92.279 118.27 103.814 97.5725 103.814 75.6081V28.3002C103.814 26.1883 106.121 24.0763 109.581 24.0763C112.465 24.0763 115.349 25.7659 115.349 28.3002V101.796L144.186 80.6768C145.34 79.8321 145.916 78.9873 146.493 78.1425V77.7201C147.646 76.4529 147.646 75.1857 148.223 73.4962C151.107 46.0407 182.251 24.0763 220.893 24.0763H248L214.549 0Z" fill="#F6951B"/>
</svg>
